<?xml version="1.0" standalone="no"?>
<!DOCTYPE svg PUBLIC "-//W3C//DTD SVG 1.1//EN" "http://www.w3.org/Graphics/SVG/1.1/DTD/svg11.dtd">
<svg xmlns="http://www.w3.org/2000/svg" id="Capa_1" data-name="Capa 1" viewBox="0 0 481.24 198.36" width="481.239990234375" height="198.36000061035156">
  <defs>
    <style>
      .cls-1 {
        fill: #d62d86;
      }

      .cls-1, .cls-2, .cls-3, .cls-4, .cls-5, .cls-6 {
        stroke-width: 0px;
      }

      .cls-2 {
        fill: #c22d82;
      }

      .cls-3 {
        fill: #2c2b2c;
      }

      .cls-4 {
        fill: #d7852c;
      }

      .cls-5 {
        fill: #fff;
      }

      .cls-6 {
        fill: #e0b64c;
      }
    </style>
  </defs>
  <g>
    <circle class="cls-3" cx="99.18" cy="99.18" r="99.18"/>
    <g>
      <path class="cls-6" d="M70.61,63.54h16.22v33.42h24.69v-22.76c0-5.89,4.77-10.66,10.66-10.66h14.36v80.67c0,4.91-3.98,8.89-8.89,8.89h-15.64v-34.95h-24.53v24.29c0,5.89-4.77,10.66-10.66,10.66h-15.02v-80.75c0-4.86,3.94-8.81,8.81-8.81Z"/>
      <path class="cls-4" d="M136.55,63.54s-.33,33.42-25.02,33.42v-22.76s-.58-10.66,10.66-10.66h14.36Z"/>
      <path class="cls-4" d="M61.59,153.27s.35-35.16,26.32-35.16v23.94s.61,11.21-11.21,11.21c-11.82,0-15.11,0-15.11,0Z"/>
    </g>
    <g>
      <path class="cls-2" d="M96.25,60.32s38.91-.38,38.91-29.14h-26.5s-12.41-.67-12.41,12.41c0,13.08,0,16.72,0,16.72Z"/>
      <path class="cls-1" d="M135.16,31.18v.05l-38.85,29.08h-.06v-16.73c0-13.08,12.41-12.41,12.41-12.41h26.5Z"/>
    </g>
  </g>
  <rect class="cls-1" x="212.91" y="69.33" width="134.25" height="24.1" rx="6.8" ry="6.8"/>
  <g>
    <path class="cls-5" d="M242.23,86.97l-.95-2.61h-5.23l-.95,2.61h-1.64l4.34-11.63h1.74l4.34,11.63h-1.64ZM236.58,82.91h4.18l-2.09-5.74-2.09,5.74Z"/>
    <path class="cls-5" d="M259.96,81.2v.7c0,1.52-.52,2.78-1.56,3.78-1.04,1-2.42,1.5-4.14,1.5s-3.24-.58-4.39-1.75c-1.16-1.17-1.74-2.59-1.74-4.28s.58-3.11,1.74-4.28c1.16-1.17,2.61-1.75,4.36-1.75,1.07,0,2.06.26,2.96.77.9.51,1.59,1.19,2.08,2.04l-1.33.78c-.33-.63-.83-1.14-1.5-1.52s-1.41-.57-2.22-.57c-1.33,0-2.42.43-3.27,1.3-.85.87-1.28,1.95-1.28,3.23s.43,2.36,1.29,3.22c.86.86,1.97,1.3,3.33,1.3,1.16,0,2.1-.28,2.82-.85.72-.57,1.16-1.31,1.31-2.22h-4.27v-1.4h5.81Z"/>
    <path class="cls-5" d="M267.28,85.5h5.4v1.46h-6.94v-11.63h6.86v1.46h-5.32v3.57h4.9v1.44h-4.9v3.69Z"/>
    <path class="cls-5" d="M285.67,75.34h1.54v11.63h-1.25l-5.98-8.69v8.69h-1.54v-11.63h1.19l6.03,8.73v-8.73Z"/>
    <path class="cls-5" d="M299.07,87.18c-1.76,0-3.21-.58-4.36-1.74-1.15-1.16-1.72-2.59-1.72-4.29s.57-3.12,1.72-4.29c1.15-1.16,2.6-1.74,4.36-1.74,1.06,0,2.04.26,2.93.76.89.51,1.59,1.2,2.08,2.06l-1.35.78c-.33-.64-.83-1.15-1.49-1.54s-1.39-.57-2.18-.57c-1.34,0-2.43.43-3.28,1.3-.85.86-1.27,1.94-1.27,3.24s.42,2.36,1.27,3.22c.85.86,1.94,1.3,3.28,1.3.8,0,1.53-.19,2.18-.57s1.15-.89,1.49-1.52l1.35.76c-.49.86-1.18,1.55-2.08,2.07-.9.51-1.88.77-2.94.77Z"/>
    <path class="cls-5" d="M309.74,75.34h1.54v11.63h-1.54v-11.63Z"/>
    <path class="cls-5" d="M325.33,86.97l-.95-2.61h-5.23l-.95,2.61h-1.64l4.34-11.63h1.74l4.34,11.63h-1.64ZM319.68,82.91h4.18l-2.09-5.74-2.09,5.74Z"/>
  </g>
  <g>
    <path class="cls-5" d="M232.87,144.5c-5.83,0-10.65-1.93-14.46-5.78-3.82-3.85-5.72-8.66-5.72-14.41s1.91-10.56,5.72-14.41c3.82-3.85,8.64-5.78,14.46-5.78,3.5,0,6.75.83,9.74,2.49,2.99,1.66,5.33,3.89,7.02,6.69l-8.57,4.92c-.74-1.36-1.84-2.44-3.29-3.24-1.46-.79-3.09-1.19-4.89-1.19-3.1,0-5.6.97-7.49,2.9-1.9,1.94-2.85,4.47-2.85,7.61s.95,5.67,2.85,7.6c1.9,1.94,4.4,2.9,7.49,2.9,1.81,0,3.44-.4,4.89-1.19,1.46-.79,2.55-1.89,3.29-3.29l8.57,4.98c-1.7,2.84-4.03,5.08-7,6.72-2.97,1.64-6.22,2.46-9.76,2.46Z"/>
    <path class="cls-5" d="M276.22,143.67l-6.75-12.5h-3.54v12.5h-9.9v-38.72h15.49c3.95,0,7.25,1.26,9.93,3.79,2.67,2.53,4.01,5.72,4.01,9.6,0,2.32-.59,4.45-1.77,6.39-1.18,1.94-2.78,3.48-4.81,4.62l7.96,14.33h-10.62ZM265.93,114.08v8.68h5.48c1.22.04,2.21-.35,2.99-1.16.77-.81,1.16-1.86,1.16-3.15s-.39-2.34-1.16-3.15c-.77-.81-1.77-1.22-2.99-1.22h-5.48Z"/>
    <path class="cls-5" d="M302.13,134.38h14.99v9.29h-24.89v-38.72h24.61v9.24h-14.71v5.37h13.33v9.13h-13.33v5.7Z"/>
    <path class="cls-5" d="M351.24,143.67l-1.85-5.59h-13.18l-1.67,5.59h-10.72l12.34-38.72h12.47l12.81,38.72h-10.19ZM338.75,129.57h7.8l-3.93-13.16-3.87,13.16Z"/>
    <path class="cls-5" d="M388.03,104.95v9.57h-9.57v29.15h-9.9v-29.15h-9.57v-9.57h29.04Z"/>
    <path class="cls-5" d="M394.49,104.95h9.9v38.72h-9.9v-38.72Z"/>
    <path class="cls-5" d="M422.79,143.67l-12.5-38.72h10.84l7.52,26.66,7.58-26.66h10.84l-12.5,38.72h-11.78Z"/>
    <path class="cls-5" d="M471.05,143.67l-1.86-5.59h-13.18l-1.67,5.59h-10.72l12.34-38.72h12.47l12.81,38.72h-10.19ZM458.57,129.57h7.8l-3.93-13.16-3.87,13.16Z"/>
  </g>
</svg>