<?xml version="1.0" standalone="no"?>
<!DOCTYPE svg PUBLIC "-//W3C//DTD SVG 1.1//EN" "http://www.w3.org/Graphics/SVG/1.1/DTD/svg11.dtd">
<svg xmlns="http://www.w3.org/2000/svg" id="Capa_1" data-name="Capa 1" viewBox="0 0 302.23 410.22" width="302.2300109863281" height="410.2200012207031">
  <defs>
    <style>
      .cls-1 {
        fill: #d62d86;
      }

      .cls-1, .cls-2, .cls-3, .cls-4, .cls-5, .cls-6 {
        stroke-width: 0px;
      }

      .cls-2 {
        fill: #c22d82;
      }

      .cls-3 {
        fill: #2c2b2c;
      }

      .cls-4 {
        fill: #d7852c;
      }

      .cls-5 {
        fill: #fff;
      }

      .cls-6 {
        fill: #e0b64c;
      }
    </style>
  </defs>
  <g>
    <circle class="cls-3" cx="151.11" cy="151.11" r="151.11"/>
    <g>
      <path class="cls-6" d="M107.59,96.82h24.71v50.92h37.63v-34.68c0-8.97,7.27-16.24,16.24-16.24h21.89v122.91c0,7.48-6.06,13.55-13.55,13.55h-23.83v-53.25h-37.37v37.01c0,8.97-7.27,16.24-16.24,16.24h-22.89v-123.04c0-7.41,6.01-13.42,13.42-13.42Z"/>
      <path class="cls-4" d="M208.05,96.81s-.5,50.92-38.13,50.92v-34.68s-.88-16.24,16.24-16.24h21.89Z"/>
      <path class="cls-4" d="M93.84,233.54s.53-53.57,40.11-53.57v36.48s.92,17.09-17.09,17.09c-18.01,0-23.02,0-23.02,0Z"/>
    </g>
    <g>
      <path class="cls-2" d="M146.66,91.9s59.29-.58,59.29-44.39h-40.38s-18.91-1.02-18.91,18.91c0,19.93,0,25.48,0,25.48Z"/>
      <path class="cls-1" d="M205.94,47.51v.08l-59.19,44.31h-.1v-25.49c0-19.93,18.91-18.91,18.91-18.91h40.38Z"/>
    </g>
  </g>
  <g>
    <path class="cls-5" d="M26.94,410.22c-6.11,0-11.17-2.02-15.17-6.06s-6-9.08-6-15.11,2-11.07,6-15.11,9.06-6.06,15.17-6.06c3.67,0,7.08.87,10.21,2.61s5.59,4.08,7.37,7.02l-8.99,5.16c-.77-1.43-1.92-2.56-3.45-3.39-1.53-.83-3.24-1.25-5.13-1.25-3.25,0-5.87,1.02-7.86,3.05-1.99,2.03-2.99,4.69-2.99,7.98s1,5.95,2.99,7.98c1.99,2.03,4.61,3.05,7.86,3.05,1.89,0,3.61-.42,5.13-1.25,1.53-.83,2.68-1.98,3.45-3.45l8.99,5.22c-1.78,2.98-4.23,5.33-7.34,7.05-3.11,1.72-6.53,2.58-10.24,2.58Z"/>
    <path class="cls-5" d="M72.4,409.35l-7.08-13.11h-3.71v13.11h-10.38v-40.61h16.24c4.14,0,7.61,1.33,10.41,3.97,2.8,2.65,4.21,6,4.21,10.06,0,2.44-.62,4.67-1.86,6.7-1.24,2.03-2.92,3.65-5.05,4.84l8.35,15.02h-11.14ZM61.61,378.31v9.11h5.74c1.28.04,2.32-.37,3.13-1.22.81-.85,1.22-1.95,1.22-3.31s-.41-2.46-1.22-3.31c-.81-.85-1.86-1.28-3.13-1.28h-5.74Z"/>
    <path class="cls-5" d="M99.57,399.6h15.72v9.75h-26.1v-40.61h25.81v9.69h-15.43v5.63h13.98v9.57h-13.98v5.98Z"/>
    <path class="cls-5" d="M151.08,409.35l-1.95-5.86h-13.82l-1.75,5.86h-11.24l12.94-40.61h13.07l13.43,40.61h-10.69ZM137.99,394.56h8.18l-4.12-13.81-4.06,13.81Z"/>
    <path class="cls-5" d="M189.67,368.74v10.04h-10.04v30.57h-10.38v-30.57h-10.04v-10.04h30.46Z"/>
    <path class="cls-5" d="M196.44,368.74h10.38v40.61h-10.38v-40.61Z"/>
    <path class="cls-5" d="M226.13,409.35l-13.11-40.61h11.37l7.89,27.96,7.95-27.96h11.37l-13.11,40.61h-12.36Z"/>
    <path class="cls-5" d="M276.74,409.35l-1.95-5.86h-13.82l-1.75,5.86h-11.24l12.94-40.61h13.07l13.43,40.61h-10.69ZM263.64,394.56h8.18l-4.12-13.81-4.06,13.81Z"/>
  </g>
  <rect class="cls-1" x="74.1" y="321.07" width="154.02" height="33.37" rx="10.15" ry="10.15"/>
  <g>
    <path class="cls-5" d="M97.43,344.94l-1.31-3.61h-7.24l-1.31,3.61h-2.28l6-16.1h2.41l6,16.1h-2.28ZM89.6,339.33h5.78l-2.89-7.95-2.89,7.95Z"/>
    <path class="cls-5" d="M121.97,336.96v.97c0,2.1-.72,3.84-2.16,5.23-1.44,1.39-3.35,2.08-5.73,2.08s-4.48-.81-6.08-2.43-2.4-3.59-2.4-5.92.8-4.3,2.4-5.92c1.6-1.62,3.61-2.43,6.04-2.43,1.49,0,2.85.36,4.09,1.07,1.24.71,2.2,1.65,2.87,2.82l-1.84,1.08c-.46-.87-1.15-1.58-2.08-2.1-.93-.53-1.95-.79-3.07-.79-1.84,0-3.35.6-4.53,1.81-1.18,1.2-1.77,2.69-1.77,4.47s.59,3.27,1.78,4.46c1.19,1.2,2.73,1.79,4.61,1.79,1.61,0,2.91-.39,3.91-1.18,1-.79,1.6-1.81,1.82-3.07h-5.91v-1.93h8.05Z"/>
    <path class="cls-5" d="M132.11,342.92h7.47v2.02h-9.61v-16.1h9.5v2.02h-7.36v4.94h6.78v2h-6.78v5.1Z"/>
    <path class="cls-5" d="M157.56,328.84h2.14v16.1h-1.72l-8.28-12.03v12.03h-2.14v-16.1h1.65l8.35,12.09v-12.09Z"/>
    <path class="cls-5" d="M176.12,345.24c-2.44,0-4.45-.8-6.04-2.41-1.59-1.61-2.38-3.59-2.38-5.93s.79-4.32,2.38-5.93c1.59-1.61,3.6-2.41,6.04-2.41,1.47,0,2.82.35,4.06,1.06,1.23.71,2.2,1.66,2.88,2.85l-1.86,1.08c-.46-.89-1.15-1.6-2.06-2.13-.91-.53-1.92-.79-3.02-.79-1.86,0-3.37.6-4.54,1.79-1.17,1.2-1.76,2.69-1.76,4.48s.59,3.27,1.76,4.46c1.17,1.2,2.69,1.79,4.54,1.79,1.1,0,2.11-.26,3.02-.79.91-.53,1.6-1.23,2.06-2.1l1.86,1.06c-.67,1.2-1.63,2.15-2.87,2.86-1.24.71-2.6,1.07-4.07,1.07Z"/>
    <path class="cls-5" d="M190.89,328.84h2.14v16.1h-2.14v-16.1Z"/>
    <path class="cls-5" d="M212.48,344.94l-1.31-3.61h-7.24l-1.31,3.61h-2.28l6-16.1h2.41l6,16.1h-2.28ZM204.66,339.33h5.78l-2.89-7.95-2.89,7.95Z"/>
  </g>
</svg>